<mxfile host="app.diagrams.net" modified="2024-07-14T11:26:31.675Z" agent="Mozilla/5.0 (Macintosh; Intel Mac OS X 10_15_7) AppleWebKit/605.1.15 (KHTML, like Gecko) Version/17.5 Safari/605.1.15" etag="A1demqkfgvOu5ph0Pgx_" version="24.6.5" type="google">
  <diagram name="Page-1" id="cH3tZmMrIEKJc0FjXa4L">
    <mxGraphModel grid="1" page="1" gridSize="10" guides="1" tooltips="1" connect="1" arrows="1" fold="1" pageScale="1" pageWidth="850" pageHeight="1100" math="0" shadow="0">
      <root>
        <mxCell id="0" />
        <mxCell id="1" parent="0" />
        <mxCell id="8ACns9qyk49bedb0_OhD-2" value="&lt;b&gt;Patient&lt;/b&gt;" style="rounded=1;whiteSpace=wrap;html=1;" vertex="1" parent="1">
          <mxGeometry x="160" y="510" width="100" height="50" as="geometry" />
        </mxCell>
        <mxCell id="8ACns9qyk49bedb0_OhD-4" value="&lt;b&gt;Consults&lt;/b&gt;" style="rhombus;whiteSpace=wrap;html=1;" vertex="1" parent="1">
          <mxGeometry x="170" y="360" width="80" height="80" as="geometry" />
        </mxCell>
        <mxCell id="8ACns9qyk49bedb0_OhD-5" value="&lt;b&gt;Doctor&lt;/b&gt;" style="rounded=1;whiteSpace=wrap;html=1;arcSize=20;" vertex="1" parent="1">
          <mxGeometry x="150" y="250" width="120" height="60" as="geometry" />
        </mxCell>
        <mxCell id="8ACns9qyk49bedb0_OhD-6" value="&lt;b&gt;Nurse&lt;/b&gt;" style="rounded=1;whiteSpace=wrap;html=1;" vertex="1" parent="1">
          <mxGeometry x="395" y="250" width="120" height="60" as="geometry" />
        </mxCell>
        <mxCell id="8ACns9qyk49bedb0_OhD-8" value="&lt;b&gt;Receptionist&lt;/b&gt;" style="rounded=1;whiteSpace=wrap;html=1;" vertex="1" parent="1">
          <mxGeometry x="605" y="250" width="120" height="60" as="geometry" />
        </mxCell>
        <mxCell id="8ACns9qyk49bedb0_OhD-9" value="&lt;b&gt;is a&lt;/b&gt;" style="rhombus;whiteSpace=wrap;html=1;" vertex="1" parent="1">
          <mxGeometry x="415" y="120" width="80" height="80" as="geometry" />
        </mxCell>
        <mxCell id="8ACns9qyk49bedb0_OhD-10" value="&lt;b&gt;Employee&lt;/b&gt;" style="rounded=1;whiteSpace=wrap;html=1;" vertex="1" parent="1">
          <mxGeometry x="395" y="20" width="120" height="60" as="geometry" />
        </mxCell>
        <mxCell id="8ACns9qyk49bedb0_OhD-15" value="" style="endArrow=none;html=1;rounded=0;entryX=0.5;entryY=1;entryDx=0;entryDy=0;" edge="1" parent="1" target="8ACns9qyk49bedb0_OhD-9">
          <mxGeometry width="50" height="50" relative="1" as="geometry">
            <mxPoint x="210" y="250" as="sourcePoint" />
            <mxPoint x="260" y="200" as="targetPoint" />
            <Array as="points">
              <mxPoint x="210" y="200" />
            </Array>
          </mxGeometry>
        </mxCell>
        <mxCell id="8ACns9qyk49bedb0_OhD-16" value="" style="endArrow=none;html=1;rounded=0;exitX=0.5;exitY=0;exitDx=0;exitDy=0;" edge="1" parent="1" source="8ACns9qyk49bedb0_OhD-6">
          <mxGeometry width="50" height="50" relative="1" as="geometry">
            <mxPoint x="360" y="250" as="sourcePoint" />
            <mxPoint x="455" y="200" as="targetPoint" />
          </mxGeometry>
        </mxCell>
        <mxCell id="8ACns9qyk49bedb0_OhD-17" value="" style="endArrow=none;html=1;rounded=0;exitX=0.5;exitY=0;exitDx=0;exitDy=0;" edge="1" parent="1" source="8ACns9qyk49bedb0_OhD-8">
          <mxGeometry width="50" height="50" relative="1" as="geometry">
            <mxPoint x="360" y="250" as="sourcePoint" />
            <mxPoint x="450" y="200" as="targetPoint" />
            <Array as="points">
              <mxPoint x="665" y="200" />
            </Array>
          </mxGeometry>
        </mxCell>
        <mxCell id="8ACns9qyk49bedb0_OhD-18" value="" style="endArrow=none;html=1;rounded=0;entryX=0.5;entryY=1;entryDx=0;entryDy=0;exitX=0.5;exitY=0;exitDx=0;exitDy=0;" edge="1" parent="1" source="8ACns9qyk49bedb0_OhD-9" target="8ACns9qyk49bedb0_OhD-10">
          <mxGeometry width="50" height="50" relative="1" as="geometry">
            <mxPoint x="445" y="130" as="sourcePoint" />
            <mxPoint x="495" y="80" as="targetPoint" />
          </mxGeometry>
        </mxCell>
        <mxCell id="8ACns9qyk49bedb0_OhD-19" value="O" style="text;strokeColor=none;align=center;fillColor=none;html=1;verticalAlign=middle;whiteSpace=wrap;rounded=0;" vertex="1" parent="1">
          <mxGeometry x="435" y="80" width="60" height="30" as="geometry" />
        </mxCell>
        <mxCell id="8ACns9qyk49bedb0_OhD-20" value="O" style="text;strokeColor=none;align=center;fillColor=none;html=1;verticalAlign=middle;whiteSpace=wrap;rounded=0;" vertex="1" parent="1">
          <mxGeometry x="190" y="220" width="60" height="30" as="geometry" />
        </mxCell>
        <mxCell id="8ACns9qyk49bedb0_OhD-21" value="O" style="text;strokeColor=none;align=center;fillColor=none;html=1;verticalAlign=middle;whiteSpace=wrap;rounded=0;" vertex="1" parent="1">
          <mxGeometry x="435" y="220" width="60" height="30" as="geometry" />
        </mxCell>
        <mxCell id="8ACns9qyk49bedb0_OhD-22" value="O" style="text;strokeColor=none;align=center;fillColor=none;html=1;verticalAlign=middle;whiteSpace=wrap;rounded=0;" vertex="1" parent="1">
          <mxGeometry x="645" y="220" width="60" height="30" as="geometry" />
        </mxCell>
        <mxCell id="8ACns9qyk49bedb0_OhD-23" value="" style="endArrow=none;html=1;rounded=0;exitX=0.5;exitY=0;exitDx=0;exitDy=0;" edge="1" parent="1" source="8ACns9qyk49bedb0_OhD-4">
          <mxGeometry width="50" height="50" relative="1" as="geometry">
            <mxPoint x="160" y="360" as="sourcePoint" />
            <mxPoint x="210" y="310" as="targetPoint" />
          </mxGeometry>
        </mxCell>
        <mxCell id="8ACns9qyk49bedb0_OhD-24" value="" style="endArrow=none;html=1;rounded=0;exitX=0.5;exitY=0;exitDx=0;exitDy=0;" edge="1" parent="1" source="8ACns9qyk49bedb0_OhD-2">
          <mxGeometry width="50" height="50" relative="1" as="geometry">
            <mxPoint x="160" y="490" as="sourcePoint" />
            <mxPoint x="210" y="440" as="targetPoint" />
          </mxGeometry>
        </mxCell>
        <mxCell id="8ACns9qyk49bedb0_OhD-25" value="M" style="text;strokeColor=none;align=center;fillColor=none;html=1;verticalAlign=middle;whiteSpace=wrap;rounded=0;" vertex="1" parent="1">
          <mxGeometry x="200" y="310" width="60" height="30" as="geometry" />
        </mxCell>
        <mxCell id="8ACns9qyk49bedb0_OhD-26" value="M" style="text;strokeColor=none;align=center;fillColor=none;html=1;verticalAlign=middle;whiteSpace=wrap;rounded=0;" vertex="1" parent="1">
          <mxGeometry x="200" y="480" width="60" height="30" as="geometry" />
        </mxCell>
        <mxCell id="8ACns9qyk49bedb0_OhD-27" value="&lt;b&gt;Age&lt;/b&gt;" style="ellipse;whiteSpace=wrap;html=1;" vertex="1" parent="1">
          <mxGeometry x="80" y="560" width="70" height="50" as="geometry" />
        </mxCell>
        <mxCell id="8ACns9qyk49bedb0_OhD-28" value="&lt;b&gt;PID&lt;/b&gt;" style="ellipse;whiteSpace=wrap;html=1;" vertex="1" parent="1">
          <mxGeometry x="80" y="450" width="70" height="50" as="geometry" />
        </mxCell>
        <mxCell id="8ACns9qyk49bedb0_OhD-29" value="&lt;b&gt;Name&lt;/b&gt;" style="ellipse;whiteSpace=wrap;html=1;" vertex="1" parent="1">
          <mxGeometry x="270" y="560" width="70" height="50" as="geometry" />
        </mxCell>
        <mxCell id="8ACns9qyk49bedb0_OhD-30" value="&lt;b&gt;Gender&lt;/b&gt;" style="ellipse;whiteSpace=wrap;html=1;" vertex="1" parent="1">
          <mxGeometry x="270" y="450" width="70" height="50" as="geometry" />
        </mxCell>
        <mxCell id="8ACns9qyk49bedb0_OhD-31" value="" style="endArrow=none;html=1;rounded=0;entryX=1;entryY=0.5;entryDx=0;entryDy=0;exitX=0;exitY=0;exitDx=0;exitDy=0;" edge="1" parent="1" source="8ACns9qyk49bedb0_OhD-2" target="8ACns9qyk49bedb0_OhD-28">
          <mxGeometry width="50" height="50" relative="1" as="geometry">
            <mxPoint x="70" y="550" as="sourcePoint" />
            <mxPoint x="120" y="500" as="targetPoint" />
          </mxGeometry>
        </mxCell>
        <mxCell id="8ACns9qyk49bedb0_OhD-32" value="" style="endArrow=none;html=1;rounded=0;entryX=0.021;entryY=0.925;entryDx=0;entryDy=0;entryPerimeter=0;exitX=1;exitY=0.5;exitDx=0;exitDy=0;" edge="1" parent="1" source="8ACns9qyk49bedb0_OhD-27" target="8ACns9qyk49bedb0_OhD-2">
          <mxGeometry width="50" height="50" relative="1" as="geometry">
            <mxPoint x="120" y="580" as="sourcePoint" />
            <mxPoint x="160" y="590" as="targetPoint" />
          </mxGeometry>
        </mxCell>
        <mxCell id="8ACns9qyk49bedb0_OhD-33" value="" style="endArrow=none;html=1;rounded=0;exitX=0.982;exitY=0.091;exitDx=0;exitDy=0;exitPerimeter=0;entryX=0;entryY=0.5;entryDx=0;entryDy=0;" edge="1" parent="1" source="8ACns9qyk49bedb0_OhD-2" target="8ACns9qyk49bedb0_OhD-30">
          <mxGeometry width="50" height="50" relative="1" as="geometry">
            <mxPoint x="260" y="550" as="sourcePoint" />
            <mxPoint x="310" y="500" as="targetPoint" />
          </mxGeometry>
        </mxCell>
        <mxCell id="8ACns9qyk49bedb0_OhD-34" value="" style="endArrow=none;html=1;rounded=0;exitX=0.972;exitY=0.934;exitDx=0;exitDy=0;exitPerimeter=0;entryX=-0.014;entryY=0.38;entryDx=0;entryDy=0;entryPerimeter=0;" edge="1" parent="1" source="8ACns9qyk49bedb0_OhD-2" target="8ACns9qyk49bedb0_OhD-29">
          <mxGeometry width="50" height="50" relative="1" as="geometry">
            <mxPoint x="260" y="620" as="sourcePoint" />
            <mxPoint x="310" y="570" as="targetPoint" />
          </mxGeometry>
        </mxCell>
        <mxCell id="8ACns9qyk49bedb0_OhD-36" value="&lt;b&gt;Governs&lt;/b&gt;" style="rhombus;whiteSpace=wrap;html=1;" vertex="1" parent="1">
          <mxGeometry x="415" y="360" width="80" height="80" as="geometry" />
        </mxCell>
        <mxCell id="8ACns9qyk49bedb0_OhD-37" value="&lt;b&gt;Rooms&lt;/b&gt;" style="rounded=1;whiteSpace=wrap;html=1;" vertex="1" parent="1">
          <mxGeometry x="405" y="510" width="100" height="50" as="geometry" />
        </mxCell>
        <mxCell id="8ACns9qyk49bedb0_OhD-38" value="&lt;b&gt;RID&lt;/b&gt;" style="ellipse;whiteSpace=wrap;html=1;" vertex="1" parent="1">
          <mxGeometry x="505" y="580" width="70" height="50" as="geometry" />
        </mxCell>
        <mxCell id="8ACns9qyk49bedb0_OhD-39" value="&lt;b&gt;Availavility&lt;/b&gt;" style="ellipse;whiteSpace=wrap;html=1;" vertex="1" parent="1">
          <mxGeometry x="505" y="440" width="70" height="50" as="geometry" />
        </mxCell>
        <mxCell id="8ACns9qyk49bedb0_OhD-40" value="&lt;b&gt;Capacity&lt;/b&gt;" style="ellipse;whiteSpace=wrap;html=1;" vertex="1" parent="1">
          <mxGeometry x="520" y="510" width="70" height="50" as="geometry" />
        </mxCell>
        <mxCell id="8ACns9qyk49bedb0_OhD-41" value="" style="endArrow=none;html=1;rounded=0;exitX=0.86;exitY=-0.052;exitDx=0;exitDy=0;exitPerimeter=0;" edge="1" parent="1" source="8ACns9qyk49bedb0_OhD-37">
          <mxGeometry width="50" height="50" relative="1" as="geometry">
            <mxPoint x="455" y="510" as="sourcePoint" />
            <mxPoint x="505" y="460" as="targetPoint" />
          </mxGeometry>
        </mxCell>
        <mxCell id="8ACns9qyk49bedb0_OhD-45" value="" style="endArrow=none;html=1;rounded=0;" edge="1" parent="1" source="8ACns9qyk49bedb0_OhD-37">
          <mxGeometry width="50" height="50" relative="1" as="geometry">
            <mxPoint x="470" y="580" as="sourcePoint" />
            <mxPoint x="520" y="530" as="targetPoint" />
          </mxGeometry>
        </mxCell>
        <mxCell id="8ACns9qyk49bedb0_OhD-46" value="" style="endArrow=none;html=1;rounded=0;exitX=0.829;exitY=1.014;exitDx=0;exitDy=0;exitPerimeter=0;" edge="1" parent="1" source="8ACns9qyk49bedb0_OhD-37">
          <mxGeometry width="50" height="50" relative="1" as="geometry">
            <mxPoint x="455" y="650" as="sourcePoint" />
            <mxPoint x="505" y="600" as="targetPoint" />
          </mxGeometry>
        </mxCell>
        <mxCell id="8ACns9qyk49bedb0_OhD-47" value="" style="endArrow=none;html=1;rounded=0;exitX=0.5;exitY=0;exitDx=0;exitDy=0;" edge="1" parent="1" source="8ACns9qyk49bedb0_OhD-36">
          <mxGeometry width="50" height="50" relative="1" as="geometry">
            <mxPoint x="405" y="360" as="sourcePoint" />
            <mxPoint x="455" y="310" as="targetPoint" />
          </mxGeometry>
        </mxCell>
        <mxCell id="8ACns9qyk49bedb0_OhD-48" value="" style="endArrow=none;html=1;rounded=0;exitX=0.5;exitY=0;exitDx=0;exitDy=0;" edge="1" parent="1" source="8ACns9qyk49bedb0_OhD-37">
          <mxGeometry width="50" height="50" relative="1" as="geometry">
            <mxPoint x="405" y="490" as="sourcePoint" />
            <mxPoint x="455" y="440" as="targetPoint" />
          </mxGeometry>
        </mxCell>
        <mxCell id="8ACns9qyk49bedb0_OhD-49" value="M" style="text;strokeColor=none;align=center;fillColor=none;html=1;verticalAlign=middle;whiteSpace=wrap;rounded=0;" vertex="1" parent="1">
          <mxGeometry x="435" y="310" width="60" height="30" as="geometry" />
        </mxCell>
        <mxCell id="8ACns9qyk49bedb0_OhD-50" value="M" style="text;strokeColor=none;align=center;fillColor=none;html=1;verticalAlign=middle;whiteSpace=wrap;rounded=0;" vertex="1" parent="1">
          <mxGeometry x="435" y="480" width="60" height="30" as="geometry" />
        </mxCell>
        <mxCell id="8ACns9qyk49bedb0_OhD-51" value="&lt;b&gt;Assigned&lt;/b&gt;" style="rhombus;whiteSpace=wrap;html=1;" vertex="1" parent="1">
          <mxGeometry x="335" y="620" width="80" height="80" as="geometry" />
        </mxCell>
        <mxCell id="8ACns9qyk49bedb0_OhD-52" value="" style="endArrow=none;html=1;rounded=0;exitX=0.5;exitY=0;exitDx=0;exitDy=0;entryX=1;entryY=0.5;entryDx=0;entryDy=0;" edge="1" parent="1" source="8ACns9qyk49bedb0_OhD-51" target="8ACns9qyk49bedb0_OhD-2">
          <mxGeometry width="50" height="50" relative="1" as="geometry">
            <mxPoint x="160" y="610" as="sourcePoint" />
            <mxPoint x="210" y="560" as="targetPoint" />
            <Array as="points">
              <mxPoint x="375" y="535" />
            </Array>
          </mxGeometry>
        </mxCell>
        <mxCell id="8ACns9qyk49bedb0_OhD-53" value="" style="endArrow=none;html=1;rounded=0;exitX=1;exitY=0.5;exitDx=0;exitDy=0;" edge="1" parent="1" source="8ACns9qyk49bedb0_OhD-51">
          <mxGeometry width="50" height="50" relative="1" as="geometry">
            <mxPoint x="405" y="610" as="sourcePoint" />
            <mxPoint x="455" y="560" as="targetPoint" />
            <Array as="points">
              <mxPoint x="455" y="660" />
            </Array>
          </mxGeometry>
        </mxCell>
        <mxCell id="8ACns9qyk49bedb0_OhD-54" value="O" style="text;strokeColor=none;align=center;fillColor=none;html=1;verticalAlign=middle;whiteSpace=wrap;rounded=0;" vertex="1" parent="1">
          <mxGeometry x="415" y="560" width="60" height="30" as="geometry" />
        </mxCell>
        <mxCell id="8ACns9qyk49bedb0_OhD-55" value="M" style="text;strokeColor=none;align=center;fillColor=none;html=1;verticalAlign=middle;whiteSpace=wrap;rounded=0;" vertex="1" parent="1">
          <mxGeometry x="240" y="530" width="60" height="30" as="geometry" />
        </mxCell>
        <mxCell id="8ACns9qyk49bedb0_OhD-57" value="&lt;b&gt;Maintains&lt;/b&gt;" style="rhombus;whiteSpace=wrap;html=1;" vertex="1" parent="1">
          <mxGeometry x="625" y="360" width="80" height="80" as="geometry" />
        </mxCell>
        <mxCell id="8ACns9qyk49bedb0_OhD-59" value="&lt;b&gt;Records&lt;/b&gt;" style="rounded=1;whiteSpace=wrap;html=1;" vertex="1" parent="1">
          <mxGeometry x="615" y="510" width="100" height="50" as="geometry" />
        </mxCell>
        <mxCell id="8ACns9qyk49bedb0_OhD-60" value="&lt;b&gt;Record_No&lt;/b&gt;" style="ellipse;whiteSpace=wrap;html=1;" vertex="1" parent="1">
          <mxGeometry x="750" y="470" width="70" height="50" as="geometry" />
        </mxCell>
        <mxCell id="8ACns9qyk49bedb0_OhD-61" value="&lt;b&gt;App No&lt;/b&gt;" style="ellipse;whiteSpace=wrap;html=1;" vertex="1" parent="1">
          <mxGeometry x="750" y="550" width="70" height="50" as="geometry" />
        </mxCell>
        <mxCell id="8ACns9qyk49bedb0_OhD-62" value="" style="endArrow=none;html=1;rounded=0;exitX=0.965;exitY=0.061;exitDx=0;exitDy=0;exitPerimeter=0;" edge="1" parent="1" source="8ACns9qyk49bedb0_OhD-59">
          <mxGeometry width="50" height="50" relative="1" as="geometry">
            <mxPoint x="700" y="540" as="sourcePoint" />
            <mxPoint x="750" y="490" as="targetPoint" />
          </mxGeometry>
        </mxCell>
        <mxCell id="8ACns9qyk49bedb0_OhD-63" value="" style="endArrow=none;html=1;rounded=0;exitX=0.965;exitY=0.973;exitDx=0;exitDy=0;exitPerimeter=0;" edge="1" parent="1" source="8ACns9qyk49bedb0_OhD-59">
          <mxGeometry width="50" height="50" relative="1" as="geometry">
            <mxPoint x="700" y="620" as="sourcePoint" />
            <mxPoint x="750" y="570" as="targetPoint" />
          </mxGeometry>
        </mxCell>
        <mxCell id="8ACns9qyk49bedb0_OhD-69" value="" style="endArrow=none;html=1;rounded=0;" edge="1" parent="1" source="8ACns9qyk49bedb0_OhD-59">
          <mxGeometry width="50" height="50" relative="1" as="geometry">
            <mxPoint x="615" y="490" as="sourcePoint" />
            <mxPoint x="665" y="440" as="targetPoint" />
          </mxGeometry>
        </mxCell>
        <mxCell id="8ACns9qyk49bedb0_OhD-70" value="" style="endArrow=none;html=1;rounded=0;exitX=0.5;exitY=0;exitDx=0;exitDy=0;" edge="1" parent="1" source="8ACns9qyk49bedb0_OhD-57">
          <mxGeometry width="50" height="50" relative="1" as="geometry">
            <mxPoint x="615" y="360" as="sourcePoint" />
            <mxPoint x="665" y="310" as="targetPoint" />
          </mxGeometry>
        </mxCell>
        <mxCell id="8ACns9qyk49bedb0_OhD-72" value="M" style="text;strokeColor=none;align=center;fillColor=none;html=1;verticalAlign=middle;whiteSpace=wrap;rounded=0;" vertex="1" parent="1">
          <mxGeometry x="645" y="480" width="60" height="30" as="geometry" />
        </mxCell>
        <mxCell id="8ACns9qyk49bedb0_OhD-73" value="M" style="text;strokeColor=none;align=center;fillColor=none;html=1;verticalAlign=middle;whiteSpace=wrap;rounded=0;" vertex="1" parent="1">
          <mxGeometry x="645" y="310" width="60" height="30" as="geometry" />
        </mxCell>
        <mxCell id="8ACns9qyk49bedb0_OhD-74" value="&lt;b&gt;Bills&lt;/b&gt;" style="rounded=1;whiteSpace=wrap;html=1;" vertex="1" parent="1">
          <mxGeometry x="90" y="890" width="100" height="50" as="geometry" />
        </mxCell>
        <mxCell id="8ACns9qyk49bedb0_OhD-75" value="&lt;b&gt;Test Report&lt;/b&gt;" style="rounded=1;whiteSpace=wrap;html=1;" vertex="1" parent="1">
          <mxGeometry x="240" y="890" width="100" height="50" as="geometry" />
        </mxCell>
        <mxCell id="8ACns9qyk49bedb0_OhD-76" value="" style="endArrow=none;html=1;rounded=0;exitX=0.5;exitY=0;exitDx=0;exitDy=0;" edge="1" parent="1" source="8ACns9qyk49bedb0_OhD-81">
          <mxGeometry width="50" height="50" relative="1" as="geometry">
            <mxPoint x="150" y="610" as="sourcePoint" />
            <mxPoint x="200" y="560" as="targetPoint" />
            <Array as="points">
              <mxPoint x="140" y="670" />
            </Array>
          </mxGeometry>
        </mxCell>
        <mxCell id="8ACns9qyk49bedb0_OhD-77" value="" style="endArrow=none;html=1;rounded=0;exitX=0.5;exitY=0;exitDx=0;exitDy=0;entryX=0.633;entryY=0.993;entryDx=0;entryDy=0;entryPerimeter=0;" edge="1" parent="1" source="8ACns9qyk49bedb0_OhD-80" target="8ACns9qyk49bedb0_OhD-2">
          <mxGeometry width="50" height="50" relative="1" as="geometry">
            <mxPoint x="185" y="610" as="sourcePoint" />
            <mxPoint x="235" y="560" as="targetPoint" />
            <Array as="points">
              <mxPoint x="290" y="670" />
            </Array>
          </mxGeometry>
        </mxCell>
        <mxCell id="8ACns9qyk49bedb0_OhD-78" value="O" style="text;strokeColor=none;align=center;fillColor=none;html=1;verticalAlign=middle;whiteSpace=wrap;rounded=0;" vertex="1" parent="1">
          <mxGeometry x="150" y="560" width="60" height="30" as="geometry" />
        </mxCell>
        <mxCell id="8ACns9qyk49bedb0_OhD-79" value="O" style="text;strokeColor=none;align=center;fillColor=none;html=1;verticalAlign=middle;whiteSpace=wrap;rounded=0;" vertex="1" parent="1">
          <mxGeometry x="220" y="560" width="60" height="30" as="geometry" />
        </mxCell>
        <mxCell id="8ACns9qyk49bedb0_OhD-80" value="&lt;b&gt;Has&lt;/b&gt;" style="rhombus;whiteSpace=wrap;html=1;" vertex="1" parent="1">
          <mxGeometry x="250" y="735" width="80" height="80" as="geometry" />
        </mxCell>
        <mxCell id="8ACns9qyk49bedb0_OhD-81" value="&lt;b&gt;Pays&lt;/b&gt;" style="rhombus;whiteSpace=wrap;html=1;" vertex="1" parent="1">
          <mxGeometry x="100" y="735" width="80" height="80" as="geometry" />
        </mxCell>
        <mxCell id="8ACns9qyk49bedb0_OhD-82" value="" style="endArrow=none;html=1;rounded=0;" edge="1" parent="1" source="8ACns9qyk49bedb0_OhD-74">
          <mxGeometry width="50" height="50" relative="1" as="geometry">
            <mxPoint x="90" y="865" as="sourcePoint" />
            <mxPoint x="140" y="815" as="targetPoint" />
          </mxGeometry>
        </mxCell>
        <mxCell id="8ACns9qyk49bedb0_OhD-83" value="" style="endArrow=none;html=1;rounded=0;exitX=0.5;exitY=0;exitDx=0;exitDy=0;" edge="1" parent="1" source="8ACns9qyk49bedb0_OhD-75">
          <mxGeometry width="50" height="50" relative="1" as="geometry">
            <mxPoint x="240" y="865" as="sourcePoint" />
            <mxPoint x="290" y="815" as="targetPoint" />
          </mxGeometry>
        </mxCell>
        <mxCell id="8ACns9qyk49bedb0_OhD-84" value="M" style="text;strokeColor=none;align=center;fillColor=none;html=1;verticalAlign=middle;whiteSpace=wrap;rounded=0;" vertex="1" parent="1">
          <mxGeometry x="100" y="860" width="60" height="30" as="geometry" />
        </mxCell>
        <mxCell id="8ACns9qyk49bedb0_OhD-85" value="M" style="text;strokeColor=none;align=center;fillColor=none;html=1;verticalAlign=middle;whiteSpace=wrap;rounded=0;" vertex="1" parent="1">
          <mxGeometry x="270" y="860" width="60" height="30" as="geometry" />
        </mxCell>
        <mxCell id="8ACns9qyk49bedb0_OhD-86" value="&lt;b&gt;PID (fk)&lt;/b&gt;" style="ellipse;whiteSpace=wrap;html=1;" vertex="1" parent="1">
          <mxGeometry x="10" y="940" width="70" height="50" as="geometry" />
        </mxCell>
        <mxCell id="8ACns9qyk49bedb0_OhD-87" value="&lt;b&gt;Test Type&lt;/b&gt;" style="ellipse;whiteSpace=wrap;html=1;" vertex="1" parent="1">
          <mxGeometry x="280" y="980" width="70" height="50" as="geometry" />
        </mxCell>
        <mxCell id="8ACns9qyk49bedb0_OhD-88" value="&lt;b&gt;Result&lt;/b&gt;" style="ellipse;whiteSpace=wrap;html=1;" vertex="1" parent="1">
          <mxGeometry x="365" y="930" width="70" height="50" as="geometry" />
        </mxCell>
        <mxCell id="8ACns9qyk49bedb0_OhD-89" value="&lt;b&gt;PID (fk)&lt;/b&gt;" style="ellipse;whiteSpace=wrap;html=1;" vertex="1" parent="1">
          <mxGeometry x="365" y="850" width="70" height="50" as="geometry" />
        </mxCell>
        <mxCell id="8ACns9qyk49bedb0_OhD-90" value="&lt;b&gt;Amount&lt;/b&gt;" style="ellipse;whiteSpace=wrap;html=1;" vertex="1" parent="1">
          <mxGeometry x="100" y="960" width="70" height="50" as="geometry" />
        </mxCell>
        <mxCell id="8ACns9qyk49bedb0_OhD-91" value="&lt;b&gt;BID&lt;/b&gt;" style="ellipse;whiteSpace=wrap;html=1;" vertex="1" parent="1">
          <mxGeometry x="10" y="850" width="70" height="50" as="geometry" />
        </mxCell>
        <mxCell id="8ACns9qyk49bedb0_OhD-93" value="" style="endArrow=none;html=1;rounded=0;exitX=0.02;exitY=0.062;exitDx=0;exitDy=0;exitPerimeter=0;" edge="1" parent="1" source="8ACns9qyk49bedb0_OhD-74">
          <mxGeometry width="50" height="50" relative="1" as="geometry">
            <mxPoint x="30" y="930" as="sourcePoint" />
            <mxPoint x="80" y="880" as="targetPoint" />
          </mxGeometry>
        </mxCell>
        <mxCell id="8ACns9qyk49bedb0_OhD-94" value="" style="endArrow=none;html=1;rounded=0;exitX=0.5;exitY=0;exitDx=0;exitDy=0;" edge="1" parent="1" source="8ACns9qyk49bedb0_OhD-86">
          <mxGeometry width="50" height="50" relative="1" as="geometry">
            <mxPoint x="40" y="980" as="sourcePoint" />
            <mxPoint x="90" y="930" as="targetPoint" />
          </mxGeometry>
        </mxCell>
        <mxCell id="8ACns9qyk49bedb0_OhD-95" value="" style="endArrow=none;html=1;rounded=0;exitX=0.5;exitY=0;exitDx=0;exitDy=0;" edge="1" parent="1" source="8ACns9qyk49bedb0_OhD-90">
          <mxGeometry width="50" height="50" relative="1" as="geometry">
            <mxPoint x="90" y="990" as="sourcePoint" />
            <mxPoint x="140" y="940" as="targetPoint" />
          </mxGeometry>
        </mxCell>
        <mxCell id="8ACns9qyk49bedb0_OhD-96" value="" style="endArrow=none;html=1;rounded=0;exitX=0.991;exitY=0.08;exitDx=0;exitDy=0;exitPerimeter=0;" edge="1" parent="1" source="8ACns9qyk49bedb0_OhD-75">
          <mxGeometry width="50" height="50" relative="1" as="geometry">
            <mxPoint x="340" y="890" as="sourcePoint" />
            <mxPoint x="365" y="870" as="targetPoint" />
          </mxGeometry>
        </mxCell>
        <mxCell id="8ACns9qyk49bedb0_OhD-97" value="" style="endArrow=none;html=1;rounded=0;" edge="1" parent="1">
          <mxGeometry width="50" height="50" relative="1" as="geometry">
            <mxPoint x="305" y="940" as="sourcePoint" />
            <mxPoint x="315" y="980" as="targetPoint" />
          </mxGeometry>
        </mxCell>
        <mxCell id="8ACns9qyk49bedb0_OhD-98" value="" style="endArrow=none;html=1;rounded=0;exitX=1;exitY=0.75;exitDx=0;exitDy=0;" edge="1" parent="1" source="8ACns9qyk49bedb0_OhD-75">
          <mxGeometry width="50" height="50" relative="1" as="geometry">
            <mxPoint x="315" y="1000" as="sourcePoint" />
            <mxPoint x="365" y="950" as="targetPoint" />
          </mxGeometry>
        </mxCell>
        <mxCell id="8ACns9qyk49bedb0_OhD-99" value="&lt;font style=&quot;font-size: 16px;&quot;&gt;&lt;b&gt;fig. ER Diagram for Hospital Management System&lt;/b&gt;&lt;/font&gt;" style="text;strokeColor=none;align=center;fillColor=none;html=1;verticalAlign=middle;whiteSpace=wrap;rounded=0;" vertex="1" parent="1">
          <mxGeometry x="210" y="1060" width="430" height="30" as="geometry" />
        </mxCell>
      </root>
    </mxGraphModel>
  </diagram>
</mxfile>
